<?xml version="1.0" encoding="UTF-8"?>
<svg version="1.1" xmlns="http://www.w3.org/2000/svg" width="3000" height="1999">
<path d="M0 0 C990 0 1980 0 3000 0 C3000 659.67 3000 1319.34 3000 1999 C2010 1999 1020 1999 0 1999 C0 1339.33 0 679.66 0 0 Z " fill="#FEFEFE" transform="translate(0,0)"/>
<path d="M0 0 C1.32686829 0.0035273 1.32686829 0.0035273 2.68054199 0.00712585 C14.12791439 0.09516064 25.54417354 0.77637681 36.96875 1.45703125 C38.7209938 1.55931534 38.7209938 1.55931534 40.50863647 1.66366577 C59.56665093 2.77915965 78.58127918 4.12687123 97.59039307 5.88085938 C100.85465994 6.17988253 104.11942919 6.47301729 107.38427734 6.765625 C199.32999223 15.01898943 199.32999223 15.01898943 238.62890625 21.52587891 C243.68539358 22.34054949 248.7485049 23.10857016 253.8125 23.875 C255.34760727 24.10735603 255.34760727 24.10735603 256.91372681 24.34440613 C260.0570195 24.81976846 263.2003835 25.29465727 266.34375 25.76953125 C290.41009214 29.40808201 290.41009214 29.40808201 300.46875 31.14453125 C301.62745605 31.34304688 302.78616211 31.5415625 303.97998047 31.74609375 C335.30520177 37.14190203 366.48495174 43.03481473 397.45410156 50.21777344 C401.74464347 51.21107962 406.04008956 52.1822865 410.3359375 53.15234375 C453.2928466 62.86427523 453.2928466 62.86427523 472.98046875 68.8125 C477.32981584 70.11937854 481.70490561 71.3247389 486.08325195 72.53027344 C500.19761637 76.42070792 514.16709303 80.70628518 528.13134766 85.10009766 C531.41965689 86.12916766 534.71287592 87.14081315 538.0078125 88.1484375 C618.40874272 112.86530986 698.42379253 146.21459295 770.68945312 189.49169922 C773.41000234 191.10959435 776.14637441 192.69613923 778.890625 194.2734375 C793.86042664 202.91283394 808.20046227 212.40750848 822.46875 222.14453125 C823.39494141 222.77536621 824.32113281 223.40620117 825.27539062 224.05615234 C853.28021975 243.19836284 879.96592872 264.34705716 904.73876953 287.52783203 C906.61196749 289.27837068 908.49116502 291.02231766 910.37109375 292.765625 C911.69545986 293.99593514 913.01968126 295.22640108 914.34375 296.45703125 C914.95017334 297.0195459 915.55659668 297.58206055 916.18139648 298.16162109 C922.22074917 303.79083802 928.01901955 309.5383012 933.40234375 315.80078125 C935.4491057 318.12225038 937.55743133 320.37780049 939.67944336 322.63037109 C945.91814805 329.27377527 951.62946522 336.19715332 957.15722656 343.43896484 C958.41906105 345.07991342 959.70117545 346.70226422 960.9921875 348.3203125 C965.81816868 354.43271453 970.27458206 360.68814132 974.53125 367.20703125 C975.00884766 367.9338208 975.48644531 368.66061035 975.97851562 369.40942383 C976.42001953 370.09673584 976.86152344 370.78404785 977.31640625 371.4921875 C977.70836182 372.10070557 978.10031738 372.70922363 978.50415039 373.33618164 C979.52766913 375.25498783 980.03078503 377.02141047 980.46875 379.14453125 C981.12875 379.14453125 981.78875 379.14453125 982.46875 379.14453125 C982.69820312 378.30664062 982.92765625 377.46875 983.1640625 376.60546875 C984.70989609 372.50484433 986.82190239 369.3253848 989.34375 365.76953125 C990.0718689 364.72949951 990.0718689 364.72949951 990.81469727 363.66845703 C1002.51010955 347.06984565 1015.15321114 331.60393989 1028.98535156 316.74560547 C1030.58053257 315.02388113 1032.16160683 313.28981998 1033.7421875 311.5546875 C1041.36380612 303.2307502 1049.31620457 295.40855213 1057.65478516 287.80566406 C1059.42080612 286.18843572 1061.17171112 284.55649456 1062.91796875 282.91796875 C1068.67435257 277.52689553 1074.52036744 272.34869893 1080.67578125 267.41015625 C1083.17140864 265.38573124 1085.61562527 263.31200738 1088.04931641 261.21386719 C1095.22820026 255.04059423 1102.7032326 249.33988874 1110.32666016 243.72900391 C1112.48199979 242.13473058 1114.62287872 240.52257368 1116.76171875 238.90625 C1143.65162127 218.6902056 1172.29234443 200.84162511 1201.46875 184.14453125 C1202.25572266 183.69368164 1203.04269531 183.24283203 1203.85351562 182.77832031 C1217.83034066 174.80667611 1232.14394153 167.4661437 1246.46875 160.14453125 C1247.61730469 159.55591309 1248.76585937 158.96729492 1249.94921875 158.36083984 C1300.61988283 132.4601148 1353.51465995 112.03155922 1407.28125 93.58203125 C1408.10753906 93.29784332 1408.93382812 93.0136554 1409.78515625 92.72085571 C1421.16098722 88.81825981 1432.60762594 85.23187046 1444.14379883 81.83374023 C1446.51754701 81.13006586 1448.88710601 80.41365817 1451.25585938 79.69335938 C1473.42295011 72.95961972 1495.76750436 66.91593199 1518.21875 61.20703125 C1519.40687286 60.90427277 1520.59499573 60.60151428 1521.81912231 60.2895813 C1541.0515215 55.39959036 1560.32768968 50.88993275 1579.76708984 46.90576172 C1583.05243474 46.23014469 1586.33357247 45.53830411 1589.61328125 44.8359375 C1601.64488514 42.2691126 1613.71328118 39.87918822 1625.78308105 37.49951172 C1627.58569123 37.14368177 1629.3880293 36.78646998 1631.19006348 36.42773438 C1640.86880007 34.50387505 1650.48733582 32.79524338 1660.28320312 31.58129883 C1663.64816251 31.11993216 1666.88411399 30.42528388 1670.18310547 29.63574219 C1675.2448237 28.54792152 1680.40374329 27.96391101 1685.53125 27.26953125 C1693.28528115 26.21860187 1701.00561234 25.06711282 1708.71829224 23.74934387 C1722.8231802 21.34106173 1736.96316216 19.39038405 1751.15625 17.58203125 C1752.33807861 17.43012329 1753.51990723 17.27821533 1754.73754883 17.1217041 C1771.25098509 15.00052305 1787.75882902 13.00757834 1804.33544922 11.44628906 C1807.47725619 11.14371205 1810.61543916 10.81581843 1813.75390625 10.48046875 C1850.65277787 6.57634411 1887.68638674 3.6160796 1924.71875 1.33203125 C1925.70854858 1.26886719 1926.69834717 1.20570313 1927.71813965 1.140625 C1938.66383798 0.4500041 1949.61137493 -0.011975 1960.578125 -0.1796875 C1961.59320129 -0.20875687 1962.60827759 -0.23782623 1963.65411377 -0.26777649 C1968.09831839 -0.29878114 1970.70791962 -0.3107031 1974.58447266 2.00878906 C1978.30536438 6.22624965 1978.57541464 11.75143258 1979.46875 17.14453125 C1979.67395264 18.35713623 1979.67395264 18.35713623 1979.88330078 19.59423828 C1984.50980179 47.54623254 1984.50980179 47.54623254 1981.4140625 53.00390625 C1979.06760013 55.47532816 1976.63175263 57.05629024 1973.237854 57.313797 C1972.30374695 57.33504135 1971.36963989 57.35628571 1970.40722656 57.37817383 C1969.33826645 57.40540527 1968.26930634 57.43263672 1967.16795349 57.46069336 C1965.99362259 57.48655518 1964.81929169 57.51241699 1963.609375 57.5390625 C1961.07069955 57.60511721 1958.53204468 57.67196627 1955.9934082 57.73950195 C1954.99192041 57.76539115 1954.99192041 57.76539115 1953.97020054 57.79180336 C1913.16033534 58.84828469 1872.60307769 61.77474988 1831.96875 65.70703125 C1830.4150621 65.85683945 1830.4150621 65.85683945 1828.82998657 66.00967407 C1816.45963418 67.21367887 1804.15155173 68.67382202 1791.84375 70.40161133 C1786.54289286 71.14299456 1781.23481052 71.8124743 1775.921875 72.4609375 C1775.07447754 72.56485306 1774.22708008 72.66876862 1773.35400391 72.77583313 C1769.93782416 73.1940019 1766.52142663 73.61025729 1763.10449219 74.0222168 C1750.92338794 75.4649936 1750.92338794 75.4649936 1738.86279297 77.66430664 C1732.44528706 78.95160362 1725.91048918 79.67213225 1719.42773438 80.55664062 C1710.06203621 81.85901749 1700.76894638 83.44673639 1691.46875 85.14453125 C1690.68438568 85.28728485 1689.90002136 85.43003845 1689.09188843 85.57711792 C1644.10568557 93.77594085 1599.47934779 102.87104237 1555.09375 113.89453125 C1554.37124054 114.07312683 1553.64873108 114.25172241 1552.90432739 114.43572998 C1544.68860241 116.47216778 1536.5491566 118.67296435 1528.44443703 121.11434555 C1522.13801591 122.99272985 1515.78287254 124.66084361 1509.41259766 126.30761719 C1508.35575272 126.5820163 1507.29890778 126.85641541 1506.21003723 127.13912964 C1503.62992781 127.80884038 1501.04949656 128.47728078 1498.46875 129.14453125 C1499.02912492 129.14176587 1499.58949984 129.13900049 1500.16685581 129.13615131 C1631.43447514 128.49926772 1631.43447514 128.49926772 1681.46875 132.14453125 C1683.62205298 132.29614477 1685.77537336 132.44751142 1687.92871094 132.59863281 C1702.12502277 133.60901601 1716.29867133 134.81898574 1730.46875 136.14453125 C1731.5002417 136.24034485 1732.5317334 136.33615845 1733.59448242 136.43487549 C1769.6513761 139.79108071 1805.66063024 143.70088859 1841.46875 149.14453125 C1842.51724121 149.30308594 1843.56573242 149.46164062 1844.64599609 149.625 C1852.25667291 150.77836279 1859.86598657 151.94000071 1867.46875 153.14453125 C1869.01731689 153.38985596 1869.01731689 153.38985596 1870.59716797 153.64013672 C1871.61568848 153.80529785 1872.63420898 153.97045898 1873.68359375 154.140625 C1874.58070068 154.28556396 1875.47780762 154.43050293 1876.40209961 154.57983398 C1878.85722498 155.03192418 1881.27588236 155.53950966 1883.7097168 156.08959961 C1888.58530524 157.18835369 1893.48454714 158.11777886 1898.3984375 159.02734375 C1900.32968014 159.38884086 1902.26082876 159.75084051 1904.19189453 160.11328125 C1905.69650238 160.39558594 1905.69650238 160.39558594 1907.23150635 160.68359375 C1927.69341248 164.53592649 1948.01530614 168.75988542 1968.26116943 173.61657715 C1970.58286334 174.17182204 1972.90577287 174.72173157 1975.22900391 175.27050781 C2009.31604454 183.32835999 2009.31604454 183.32835999 2025.51708984 188.53320312 C2027.43372679 189.13356076 2029.36737994 189.67870236 2031.30078125 190.22265625 C2044.93462702 194.07869344 2044.93462702 194.07869344 2048.73461914 200.17553711 C2052.10407492 206.79652113 2054.12074241 213.38861937 2055.90625 220.58203125 C2057.9088297 228.33930078 2059.96949186 236.03189661 2062.46875 243.64453125 C2065.29121159 252.27995359 2067.64799112 261.0209029 2069.93359375 269.8125 C2071.59031769 276.12532489 2073.46716044 282.30764081 2075.57177734 288.4855957 C2076.63538779 291.63850298 2077.57370345 294.81494493 2078.46875 298.01953125 C2078.80261719 299.20546875 2079.13648437 300.39140625 2079.48046875 301.61328125 C2079.80660156 302.77859375 2080.13273437 303.94390625 2080.46875 305.14453125 C2083.23075182 314.88993505 2086.06092873 324.61469963 2088.90161133 334.33740234 C2090.74851518 340.66271388 2092.57294961 346.99378504 2094.375 353.33203125 C2095.88860565 358.60802807 2097.42940972 363.87599421 2098.96875 369.14453125 C2101.1277324 376.53385176 2103.2697077 383.92721006 2105.375 391.33203125 C2106.88860593 396.60802906 2108.4295637 401.87594849 2109.96875 407.14453125 C2113.62955494 419.68626664 2117.23945751 432.23847211 2120.71875 444.83203125 C2120.98953369 445.80221191 2121.26031738 446.77239258 2121.53930664 447.77197266 C2121.7893042 448.68253418 2122.03930176 449.5930957 2122.296875 450.53125 C2122.6357373 451.75654419 2122.6357373 451.75654419 2122.98144531 453.0065918 C2123.46875 455.14453125 2123.46875 455.14453125 2123.46875 458.14453125 C1369.74875 458.14453125 616.02875 458.14453125 -160.53125 458.14453125 C-159.2361721 451.02160281 -157.88612123 444.33824078 -155.84375 437.45703125 C-155.58392334 436.5654834 -155.32409668 435.67393555 -155.05639648 434.75537109 C-154.50277445 432.85756727 -153.94681961 430.96044258 -153.38867188 429.06396484 C-152.52722445 426.13082465 -151.67628151 423.19482128 -150.828125 420.2578125 C-147.97663779 410.40230435 -145.05753448 400.57276131 -142.03125 390.76953125 C-139.12090187 381.3321791 -136.50214185 371.83147493 -134.015625 362.27392578 C-132.67584993 357.17291018 -131.23613065 352.15340492 -129.53515625 347.16015625 C-127.4500289 341.03656104 -125.78321645 334.84043202 -124.15625 328.58203125 C-121.8500528 319.85013681 -119.37247875 311.21626577 -116.58813477 302.62573242 C-114.73548311 296.88406393 -113.16442064 291.09907218 -111.65234375 285.2578125 C-110.29523157 280.1568547 -108.71323551 275.12475521 -107.15625 270.08203125 C-104.81622779 262.48925369 -102.59276955 254.88015685 -100.53125 247.20703125 C-98.39539946 239.26873882 -96.1920119 231.35357833 -93.90625 223.45703125 C-93.62910156 222.48967041 -93.35195313 221.52230957 -93.06640625 220.52563477 C-86.57317515 198.22823307 -86.57317515 198.22823307 -78.59375 193.70703125 C-69.98040809 189.71458092 -60.66993321 187.58686283 -51.53125 185.14453125 C-50.1429086 184.76815975 -48.75473372 184.39117361 -47.36669922 184.01367188 C-26.68586014 178.39474081 -5.96900311 173.24645557 15.01025391 168.86767578 C18.05515883 168.23100993 21.09646992 167.58033191 24.13671875 166.921875 C53.40467435 160.63350628 82.89311962 154.74171446 112.54052734 150.56396484 C115.65159264 150.11834118 118.75733395 149.64401741 121.86328125 149.1640625 C135.71751396 147.0360981 149.59202483 145.21861337 163.51025391 143.57421875 C164.90918601 143.40890767 166.30811189 143.24354385 167.70703125 143.078125 C168.38588379 142.99787079 169.06473633 142.91761658 169.76416016 142.83493042 C174.45878694 142.27573526 179.14175696 141.65364772 183.82421875 141.00170898 C195.75635397 139.35111199 207.73051838 138.1743158 219.71875 137.01953125 C220.60440643 136.9330835 221.49006287 136.84663574 222.40255737 136.75756836 C232.61630963 135.76576029 242.81173238 134.92676937 253.065979 134.49240112 C257.16648805 134.31046163 261.17176457 133.93920105 265.24429321 133.39620972 C270.016151 132.85631438 274.81917396 132.67512047 279.61328125 132.42578125 C280.77768234 132.36297974 281.94208344 132.30017822 283.14176941 132.23547363 C286.85479334 132.03584352 290.56801175 131.84013007 294.28125 131.64453125 C296.73373775 131.51327819 299.18621185 131.38177007 301.63867188 131.25 C313.50840418 130.61375518 313.50840418 130.61375518 318.8026886 130.34312439 C321.38186646 130.2034085 323.95741605 130.04968783 326.53459167 129.88063049 C341.09679295 128.96390089 355.64444124 129.01723932 370.23046875 129.046875 C372.96100334 129.0493082 375.6915379 129.05021512 378.42207336 129.05116272 C384.82111431 129.05424117 391.22013768 129.06240633 397.61917096 129.07251221 C404.91814013 129.08378319 412.21711025 129.08921116 419.51608598 129.09420764 C434.50031703 129.10459286 449.48453174 129.12212298 464.46875 129.14453125 C463.40148682 128.88188477 462.33422363 128.61923828 461.23461914 128.34863281 C459.80352525 127.99423318 458.37245558 127.63973575 456.94140625 127.28515625 C456.24164673 127.11322754 455.54188721 126.94129883 454.82092285 126.76416016 C450.13855824 125.60134365 445.52158848 124.30038124 440.90625 122.89453125 C420.92662192 116.91069789 400.62110684 112.05661634 380.24609375 107.63671875 C374.3753125 106.3586443 368.53057732 104.98535624 362.6862793 103.59179688 C344.70130206 99.311403 326.6198708 95.64334742 308.46875 92.14453125 C307.7971283 92.01475891 307.12550659 91.88498657 306.43353271 91.75128174 C298.5416368 90.22750165 290.64377731 88.73929731 282.73710632 87.29441833 C279.21092674 86.65000027 275.68625181 85.99892297 272.1640625 85.33300781 C243.33263165 79.89044984 214.3248428 76.04773062 185.22045898 72.41212463 C179.67099607 71.7127898 174.14006681 70.95354289 168.61401367 70.0871582 C164.05509284 69.37372384 159.53265666 68.77676733 154.9375 68.36328125 C153.64166992 68.24452637 152.34583984 68.12577148 151.01074219 68.00341797 C150.01947327 67.91540924 150.01947327 67.91540924 149.00817871 67.82562256 C146.92078502 67.64027219 144.83389967 67.44989449 142.74707031 67.25830078 C138.65463442 66.88325799 134.56171662 66.51373688 130.46875 66.14453125 C126.38498847 65.77401473 122.30171357 65.39872657 118.21875 65.01953125 C116.95321289 64.90641602 116.95321289 64.90641602 115.66210938 64.79101562 C109.8873173 64.25461234 109.8873173 64.25461234 107.57592773 63.64672852 C105.00630641 63.03431848 102.53076953 62.85604111 99.89453125 62.6796875 C98.77135498 62.60298828 97.64817871 62.52628906 96.4909668 62.44726562 C95.26676025 62.36798828 94.04255371 62.28871094 92.78125 62.20703125 C90.83182495 62.07844727 90.83182495 62.07844727 88.84301758 61.94726562 C86.08462386 61.76597679 83.32605949 61.58757161 80.56738281 61.41064453 C76.77061775 61.16614828 72.97519673 60.90393008 69.1796875 60.640625 C55.82975535 59.74822635 42.50794007 59.08953778 29.1328125 58.71484375 C26.58048366 58.63936916 24.02815619 58.56384804 21.47583008 58.48828125 C16.39520709 58.33894937 11.31475818 58.21571191 6.2331543 58.10546875 C3.87025517 58.03863054 1.50737944 57.97095885 -0.85546875 57.90234375 C-1.94471649 57.88559601 -3.03396423 57.86884827 -4.15621948 57.85159302 C-10.19400178 57.65319805 -13.95134068 57.22355043 -18.53125 53.14453125 C-22.54204973 45.1229318 -19.04045778 31.7299149 -17.61474609 23.1184082 C-17.27679835 21.05484882 -16.96787929 18.98818044 -16.66015625 16.91992188 C-16.44703008 15.58696382 -16.23224819 14.25426921 -16.015625 12.921875 C-15.82709961 11.73843506 -15.63857422 10.55499512 -15.44433594 9.33569336 C-14.42409918 5.77004771 -13.07059714 3.81719106 -10.53125 1.14453125 C-7.24416807 -0.49900972 -3.61107069 -0.01479983 0 0 Z " fill="#20344C" transform="translate(518.53125,525.85546875)"/>
<path d="M0 0 C1.93839623 -0.00356709 3.87678987 -0.00888814 5.81517705 -0.01580173 C11.15547705 -0.02974336 16.49548056 -0.0187093 21.83576692 -0.00368956 C27.6405849 0.0082419 33.44536495 -0.00300553 39.25018281 -0.0113312 C50.09770098 -0.02346116 60.94512109 -0.01750454 71.79263424 -0.00333986 C82.04499267 0.0098431 92.29731018 0.01353545 102.54967594 0.00876045 C103.23959747 0.00844472 103.92951901 0.00812899 104.64034725 0.0078037 C108.15835157 0.00615565 111.6763558 0.00436992 115.19436002 0.00253894 C140.65984621 -0.01040418 166.12529737 -0.00369917 191.5907793 0.01372719 C216.82314233 0.03096293 242.05548882 0.04079066 267.28785801 0.04039192 C268.87229851 0.04037608 270.45673901 0.04036063 272.04117951 0.04034559 C278.40845115 0.04027084 284.77572278 0.04013799 291.1429944 0.03993396 C308.94342527 0.03937868 326.74385594 0.04015627 344.54428673 0.04191208 C345.35492746 0.04199142 346.16556818 0.04207077 347.00077378 0.04215251 C372.83618397 0.04476888 398.67158894 0.05311267 424.50699615 0.06562805 C425.34506914 0.06603393 426.18314213 0.06643981 427.04661127 0.06685799 C440.65639179 0.07347546 454.26617212 0.08046608 467.87595244 0.08747542 C521.82625981 0.11523832 575.77654839 0.12854229 629.72686291 0.12717247 C631.4313219 0.12713169 633.13578089 0.12709126 634.84023988 0.12705119 C638.24513256 0.12697083 641.65002524 0.12688928 645.05491793 0.12680697 C652.68962071 0.12662413 660.32432348 0.12645543 667.95902627 0.1263138 C669.65004453 0.12628226 671.3410628 0.12624938 673.03208107 0.12621514 C718.23446536 0.12532403 763.43684709 0.13426564 808.63922948 0.14691961 C809.4287081 0.14713995 810.21818672 0.14736029 811.03158893 0.14758731 C825.40969691 0.15160115 825.40969691 0.15160115 832.46176991 0.1536365 C849.81426401 0.15862458 867.16675722 0.16250934 884.51925206 0.1632638 C885.3005653 0.16329886 886.08187853 0.16333392 886.88686793 0.16337004 C890.03556231 0.16350844 893.18425669 0.16363895 896.33295108 0.163765 C925.57546532 0.16493827 954.81796419 0.17249824 984.06047199 0.1927224 C986.86751045 0.19463747 989.67454892 0.19652415 992.48158741 0.19838905 C993.17046517 0.19885012 993.85934293 0.19931119 994.56909578 0.19978622 C1004.78994486 0.20646599 1015.01078431 0.20764471 1025.23163509 0.20553398 C1036.61243139 0.20323169 1047.99319964 0.20753947 1059.37398891 0.22081765 C1065.10101088 0.22730397 1070.82798728 0.23070747 1076.55501143 0.22529645 C1081.77491861 0.22043636 1086.99473506 0.22491031 1092.21463081 0.23653268 C1094.08175802 0.23911256 1095.94889368 0.23843057 1097.81601718 0.23389947 C1114.73247019 0.19618409 1131.46112634 1.33743386 1148.05083752 4.81027794 C1149.11068859 5.02611534 1150.17053967 5.24195274 1151.26250744 5.46433067 C1158.24537681 6.9377508 1164.79015444 8.88731728 1171.50396252 11.30246544 C1176.05498026 12.75917195 1180.61737482 13.75705188 1185.30083752 14.68527794 C1186.0798341 14.84004601 1186.85883068 14.99481407 1187.66143322 15.15427208 C1190.18250944 15.63347199 1192.7078463 16.07107122 1195.23833752 16.49777794 C1196.78509167 16.77029381 1196.78509167 16.77029381 1198.36309338 17.04831505 C1207.10372667 18.46217654 1215.59805132 18.77745089 1224.42412853 18.70358849 C1226.67025748 18.68532331 1228.91596994 18.68308 1231.16216564 18.68332481 C1243.67247542 18.65423047 1256.27301589 18.494895 1268.55083752 15.87277794 C1269.36351086 15.70528038 1270.1761842 15.53778282 1271.013484 15.36520958 C1280.49414659 13.33951774 1289.83793349 10.76198226 1299.17974377 8.18137169 C1300.20986584 7.89890587 1301.23998791 7.61644005 1302.3013258 7.32541466 C1304.10432723 6.81733695 1305.90154637 6.28737609 1307.68706799 5.72092247 C1324.14198675 0.68784583 1341.63093877 0.04989195 1358.70843506 0.12025452 C1360.67383732 0.11711507 1362.63923783 0.11266394 1364.60463455 0.10704142 C1369.95919164 0.09546448 1375.31358432 0.10229301 1380.66813844 0.11237528 C1386.51089514 0.12003422 1392.35362801 0.11018646 1398.19638127 0.10264528 C1409.09059065 0.09113453 1419.98474789 0.09307622 1430.87895883 0.10130371 C1441.17041704 0.10892478 1451.46185083 0.10938428 1461.7533102 0.10357475 C1462.79498448 0.10299348 1462.79498448 0.10299348 1463.85770269 0.10240046 C1466.68644639 0.1008005 1469.51519005 0.09915436 1472.34393368 0.09744963 C1498.63845029 0.08161455 1524.93294823 0.08049067 1551.22746754 0.08889198 C1552.0052461 0.08914037 1552.78302466 0.08938876 1553.58437228 0.08964467 C1554.36340069 0.08989346 1555.14242911 0.09014225 1555.94506445 0.09039857 C1579.70021054 0.09797493 1603.45534891 0.09991911 1627.21049595 0.09633064 C1628.80264806 0.0960982 1630.39480017 0.09586674 1631.98695227 0.09563623 C1638.38537514 0.09470481 1644.78379801 0.0937488 1651.18222087 0.09275694 C1669.06600655 0.09000637 1686.94979225 0.08829425 1704.83357811 0.08739853 C1706.05497782 0.08733712 1706.05497782 0.08733712 1707.30105226 0.08727448 C1733.23416775 0.08604725 1759.16728056 0.0894244 1785.1003952 0.09594727 C1785.94113605 0.09615801 1786.7818769 0.09636876 1787.64809474 0.09658589 C1801.30042085 0.10002056 1814.9527469 0.10367903 1828.60507295 0.10735641 C1882.78158199 0.12193381 1936.9580688 0.12124061 1991.13457775 0.10666466 C2004.79556717 0.10300108 2018.4565566 0.09936793 2032.11754608 0.09594727 C2032.95870866 0.09573592 2033.79987124 0.09552458 2034.66652359 0.09530683 C2060.58481865 0.0888394 2086.50311186 0.0860952 2112.4214077 0.08739853 C2113.64164268 0.08745966 2113.64164268 0.08745966 2114.88652887 0.08752202 C2132.74260113 0.08845939 2150.5986732 0.09036019 2168.45474527 0.09313004 C2174.84327639 0.09411745 2181.23180751 0.0950567 2187.62033864 0.09598217 C2189.20960828 0.09621434 2190.79887792 0.09645053 2192.38814755 0.09669076 C2216.14572838 0.10027205 2239.90330052 0.09722135 2263.66088026 0.08964467 C2264.43973517 0.08939628 2265.21859007 0.0891479 2266.02104664 0.08889198 C2266.7984621 0.08864394 2267.57587756 0.08839589 2268.37685107 0.08814033 C2294.5824118 0.07987039 2320.78795013 0.0829002 2346.99350766 0.09873421 C2349.80619796 0.1003913 2352.61888829 0.10200141 2355.43157864 0.10357475 C2356.46700398 0.10416068 2356.46700398 0.10416068 2357.523347 0.10475845 C2368.46111908 0.11067964 2379.39886334 0.10655167 2390.33663291 0.09826774 C2401.08659054 0.09033946 2411.83649908 0.0933571 2422.58645077 0.10731 C2428.33859563 0.11447103 2434.0906348 0.11683529 2439.84277645 0.10609205 C2445.07245936 0.09642379 2450.30194253 0.10048542 2455.53161079 0.11563403 C2457.41456923 0.11866275 2459.29754408 0.11663823 2461.18048953 0.10901622 C2473.69886813 0.06192694 2484.74404147 0.22288789 2494.23833752 9.49777794 C2499.1547324 15.75014969 2501.34932143 20.35784668 2501.43120861 28.38083458 C2501.4393861 29.07722038 2501.44756359 29.77360619 2501.45598888 30.49109459 C2501.4808047 32.79669919 2501.49735436 35.10224209 2501.51177502 37.40793419 C2501.51709869 38.19807852 2501.52242237 38.98822285 2501.52790737 39.80231094 C2501.55463002 43.98944566 2501.57400256 48.17655074 2501.58843517 52.36374474 C2501.60173992 55.81583927 2501.62952862 59.26733785 2501.67046642 62.71921349 C2501.72002317 66.89840606 2501.74458483 71.07706078 2501.75166225 75.25653458 C2501.75833913 76.84203972 2501.77346739 78.42753454 2501.79755306 80.01287079 C2501.94225357 90.11858908 2501.43512193 98.5220992 2494.49550915 106.50182152 C2484.41537049 116.19985991 2472.82616733 116.07129136 2459.65696049 115.98996925 C2457.75057162 115.99292998 2455.84418483 115.99764665 2453.9378041 116.00395525 C2448.69116371 116.01622224 2443.44483371 116.00353878 2438.19821646 115.98684271 C2432.49349748 115.97310009 2426.78880983 115.9825902 2421.08408463 115.98915267 C2411.08342103 115.99744844 2401.0828526 115.99087117 2391.08220005 115.97459984 C2380.35320451 115.95719194 2369.62426574 115.9483103 2358.895257 115.95020866 C2358.2173258 115.95032343 2357.53939461 115.9504382 2356.84092004 115.95055645 C2353.38407907 115.95118196 2349.92723814 115.95194975 2346.47039721 115.95276779 C2321.45636933 115.95839626 2296.44238207 115.94467975 2271.42836666 115.92069817 C2246.65736089 115.89700632 2221.88637252 115.88159741 2197.11535549 115.87728691 C2195.96130899 115.87708044 2195.96130899 115.87708044 2194.78394841 115.8768698 C2187.75696401 115.87561699 2180.72997959 115.87446623 2173.70299515 115.8734379 C2156.23489755 115.87088035 2138.76680035 115.86704309 2121.29870319 115.86233711 C2120.50325498 115.86212384 2119.70780677 115.86191057 2118.88825406 115.86169084 C2080.19667377 115.8512054 2041.50510496 115.82597542 2002.81353283 115.79953575 C1989.38712097 115.79036909 1975.96070907 115.78126762 1962.53429699 115.77243614 C1961.7015867 115.77188835 1960.8688764 115.77134055 1960.01093247 115.77077615 C1921.29842686 115.74539859 1882.58591928 115.73049707 1843.87340754 115.71829696 C1841.36008125 115.71750471 1838.84675496 115.71670794 1836.33342867 115.71591024 C1819.6774476 115.71063111 1803.02146648 115.70553251 1786.36548532 115.70055481 C1753.22437597 115.69064887 1720.083267 115.67968214 1686.94215824 115.66798662 C1685.36390152 115.66742966 1683.7856448 115.66687344 1682.20738808 115.66631797 C1611.16024446 115.64130648 1540.11310925 115.60395496 1469.06597424 115.5612545 C1468.40073343 115.56085476 1467.73549263 115.56045502 1467.05009301 115.56004316 C1433.77950737 115.54004143 1400.50892219 115.51933541 1367.23833752 115.49777794 C1366.94644543 116.25751915 1366.65455334 117.01726036 1366.35381603 117.80002403 C1364.97205249 121.1417809 1363.13462717 124.09890163 1361.17583752 127.12277794 C1360.58246593 128.04147667 1360.58246593 128.04147667 1359.97710705 128.97873497 C1356.13170378 134.82818787 1351.80721538 140.19686993 1347.23833752 145.49777794 C1346.63118908 146.22738731 1346.02404064 146.95699669 1345.39849377 147.70871544 C1341.37799882 152.46766864 1337.04969712 156.5483883 1332.23833752 160.49777794 C1331.24060314 161.33309044 1330.24286877 162.16840294 1329.21490002 163.02902794 C1300.98229281 186.24875499 1266.33246426 198.21123697 1229.92583752 197.93527794 C1228.64381954 197.93071587 1228.64381954 197.93071587 1227.33590221 197.92606163 C1214.58547841 197.85902392 1202.51290249 197.21604797 1190.23833752 193.49777794 C1189.13135509 193.18429405 1189.13135509 193.18429405 1188.00200939 192.86447716 C1165.13293219 186.32415624 1145.18667568 174.99861545 1127.23833752 159.49777794 C1126.0356422 158.47877403 1126.0356422 158.47877403 1124.80865002 157.43918419 C1112.064691 146.43303776 1101.25935502 132.30753371 1093.23833752 117.49777794 C1093.23833752 116.83777794 1093.23833752 116.17777794 1093.23833752 115.49777794 C1092.27612297 115.49824588 1091.31390841 115.49871382 1090.32253585 115.49919594 C1057.37723369 115.51519494 1024.43193123 115.53052664 991.48662853 115.54538536 C990.49108707 115.54583445 990.49108707 115.54583445 989.47543365 115.54629261 C918.36612473 115.57835162 847.2568157 115.60602169 776.14750195 115.62480736 C774.56814219 115.62522571 772.98878243 115.62564406 771.40942268 115.62606242 C738.25893474 115.6348303 705.10844668 115.64298047 671.95795842 115.65041697 C655.30560422 115.65415318 638.65325004 115.65800811 622.00089589 115.66197526 C619.48893631 115.66257301 616.97697672 115.66316736 614.46501714 115.66376158 C575.7800598 115.67294255 537.0951053 115.6846709 498.41015148 115.70377159 C497.16231718 115.70438764 497.16231718 115.70438764 495.88927411 115.70501613 C482.47657835 115.71165332 469.06388271 115.71850412 455.65118708 115.72538326 C417.02291705 115.74519179 378.39464919 115.76342328 339.76637459 115.77119732 C338.97217005 115.77135792 338.17796551 115.77151853 337.35969417 115.771684 C319.92581259 115.77518113 302.49193099 115.77786577 285.05804916 115.77978089 C278.04345286 115.78056576 271.02885658 115.78146762 264.01426029 115.78240967 C262.8626782 115.78256009 262.8626782 115.78256009 261.68783182 115.78271355 C236.94362006 115.78600391 212.19942446 115.79882059 187.45521922 115.81662456 C162.53342363 115.83451278 137.61164372 115.84307735 112.68984155 115.8386499 C109.24719735 115.83804065 105.80455314 115.83753851 102.36190891 115.83710098 C101.68704278 115.83701134 101.01217666 115.8369217 100.31686004 115.83682934 C88.97315073 115.83561714 77.62948458 115.84632131 66.28578348 115.86017057 C56.42555132 115.8713896 46.56535767 115.87179056 36.70512288 115.86327338 C31.08075494 115.85872841 25.45649803 115.85900239 19.83214182 115.87242749 C14.71813779 115.88454205 9.60433173 115.88291218 4.49033084 115.87019787 C2.64919253 115.86805056 0.8080398 115.87096212 -1.03308005 115.87948367 C-13.60000731 115.93397326 -24.10564695 115.54238638 -33.76166248 106.49777794 C-38.89682525 100.59364409 -41.00115225 95.2831385 -41.06805897 87.38767052 C-41.07638248 86.69099266 -41.084706 85.9943148 -41.09328175 85.2765255 C-41.11730177 82.98172916 -41.12614554 80.68721778 -41.13275623 78.39230919 C-41.14173131 76.78673281 -41.1508533 75.18115725 -41.16011524 73.5755825 C-41.17658796 70.21067847 -41.18430174 66.8458737 -41.18719959 63.48093224 C-41.19257015 59.19157841 -41.23020158 54.90317225 -41.27594376 50.6140852 C-41.30585161 47.29640457 -41.31292616 43.9789479 -41.31392574 40.66114426 C-41.3181038 39.08123705 -41.33044004 37.50132768 -41.35144329 35.92155457 C-41.47494882 25.82537093 -41.01060204 17.21157772 -33.83025074 9.39531517 C-31.86781839 7.48257632 -30.07652924 5.97958755 -27.76166248 4.49777794 C-27.2505838 4.16419717 -26.73950511 3.83061639 -26.21293919 3.48692711 C-18.10629312 -0.94481663 -8.95700066 -0.05140369 0 0 Z " fill="#21354C" transform="translate(269.76166248321533,1036.5022220611572)"/>
<path d="M0 0 C12.71937861 0.0044632 25.43874789 0.0036389 38.15812635 -0.00090944 C120.14860206 -0.02937644 202.13406551 0.15376385 328.80754041 1.12946165 C330.00267444 1.13936912 331.19780847 1.14927658 332.42915868 1.15948427 C360.4524286 1.39194708 388.4751565 1.66136188 416.49763917 1.97453821 C419.25965661 2.00532112 422.02167712 2.03581472 424.78369855 2.06623686 C517.20867853 3.08520018 609.64160097 4.26224441 826.16076326 9.7617029 C834.22296566 9.9969376 842.28524648 10.22910923 850.34763824 10.45776684 C856.55894768 10.6339607 862.77021072 10.81172841 868.98144232 10.99064488 C872.66144636 11.09660701 876.34146504 11.20195133 880.0215373 11.30551947 C898.84581938 11.83611829 917.64601199 12.5341402 936.44425916 13.6646179 C943.93373703 14.09661293 951.42718249 14.3089929 958.9257369 14.51949728 C978.14933194 15.06011695 997.35105525 15.91183472 1016.55754041 16.87946165 C1017.40085668 16.92159537 1018.24417295 16.96372908 1019.11304425 17.00713957 C1051.39881065 18.62191843 1083.5868231 20.8975831 1115.77925061 23.85217894 C1118.75307553 24.12447462 1121.72740668 24.39062179 1124.70182752 24.65631712 C1133.89342031 25.48905195 1143.02437565 26.40129277 1152.12004041 28.00446165 C1153.05525525 28.15270384 1153.9904701 28.30094603 1154.95402478 28.4536804 C1160.89855971 29.48133718 1165.54073182 31.17807302 1170.80754041 34.12946165 C1170.80754041 34.78946165 1170.80754041 35.44946165 1170.80754041 36.12946165 C1164.62270899 38.81318806 1158.44123407 40.54510447 1151.79191541 41.61383665 C1151.01327131 41.7404518 1150.2346272 41.86706694 1149.43238782 41.9975189 C1139.47456227 43.56211667 1129.46264351 44.59295107 1119.43254041 45.56696165 C1118.35065442 45.67273527 1117.26876844 45.77850889 1116.15409803 45.88748778 C1085.09926924 48.88525539 1053.95970182 50.5448326 1022.80754041 52.12946165 C1022.01293409 52.17005453 1021.21832776 52.21064741 1020.39964246 52.25247038 C992.20863865 53.69196229 964.01103858 54.96138585 935.80754041 56.12946165 C934.81315961 56.17071165 933.81877881 56.21196165 932.79426526 56.25446165 C840.8353508 60.05987596 748.82290402 62.22964589 592.55754041 65.31696165 C591.44653093 65.33568579 590.33552144 65.35440993 589.19084501 65.37370146 C516.40366925 66.59307895 443.60894339 67.44973061 370.81535291 68.17633665 C369.71232479 68.1873558 368.60929667 68.19837495 367.47284346 68.20972801 C270.89453021 69.17110323 174.31827219 69.41033802 23.85077348 69.38838429 C3.65658325 69.37963107 -16.53758629 69.38051488 -36.73177634 69.38929543 C-227.06938889 69.47186743 -227.06938889 69.47186743 -430.96998303 67.22060541 C-438.01241611 67.11690599 -445.05491647 67.01815439 -452.09742785 66.91992796 C-475.33241184 66.59458293 -498.56656012 66.23528573 -521.80018986 65.82439864 C-527.92826686 65.71603165 -534.05638535 65.61025876 -540.18452502 65.50549925 C-590.54606708 64.64333237 -640.90489404 63.66787261 -691.26147795 62.55271138 C-693.42897207 62.50476004 -695.59647041 62.45700387 -697.76396991 62.4092964 C-705.85223638 62.23108588 -713.9404108 62.04939252 -722.02848483 61.86262167 C-724.42067312 61.80754171 -726.81287679 61.75312415 -729.20509768 61.69947851 C-741.55000879 61.42115777 -753.88190622 61.04546432 -766.21720839 60.48108805 C-774.0168363 60.12620333 -781.81202316 59.89882299 -789.61824084 59.7349304 C-792.49978355 59.66924956 -795.38127454 59.60138817 -798.26277209 59.53375853 C-799.3804294 59.50781127 -799.3804294 59.50781127 -800.52066565 59.48133982 C-833.19465561 58.7209182 -865.84856927 57.60098819 -898.50376559 56.26026381 C-901.64505414 56.13140625 -904.78638302 56.00357167 -907.9277196 55.8758911 C-929.51108791 54.99582488 -951.08665957 54.0462926 -972.65107775 52.7772888 C-980.70483757 52.30503134 -988.75358963 51.938075 -996.81745959 51.69196165 C-1015.30621484 51.04668267 -1033.75056002 49.55531846 -1052.19245959 48.12946165 C-1052.99478015 48.06780821 -1053.7971007 48.00615477 -1054.623734 47.94263304 C-1070.75022932 46.70003655 -1086.85726749 45.28508855 -1102.92680407 43.43704832 C-1104.32231065 43.27727481 -1105.71823686 43.12111258 -1107.11460925 42.96909178 C-1116.66809641 41.91813914 -1126.49661074 40.47738608 -1135.19245959 36.12946165 C-1134.61035205 34.26204527 -1134.61035205 34.26204527 -1133.19245959 32.12946165 C-1123.78279479 28.32142896 -1113.17736192 27.18985496 -1103.17292834 26.0708679 C-1102.47734505 25.99011078 -1101.78176177 25.90935366 -1101.0651002 25.82614935 C-1083.77911856 23.81956846 -1066.43713043 22.49525515 -1049.08227206 21.2521385 C-1046.45926632 21.06367865 -1043.83648161 20.87236225 -1041.21373034 20.68039549 C-1000.79933822 17.72932495 -960.32819051 15.40439512 -919.8133092 14.41925658 C-914.31762105 14.28541753 -908.84929484 14.05351409 -903.36482287 13.67267454 C-891.93865474 12.92640771 -880.49485102 12.60429741 -869.05183459 12.2271179 C-866.56633645 12.14378143 -864.08084257 12.06031777 -861.59535266 11.97673643 C-856.36051892 11.80125477 -851.12563189 11.62748297 -845.89070178 11.45490111 C-840.69921785 11.28363386 -835.50781379 11.11024164 -830.31648303 10.93439329 C-752.89218005 8.31209764 -675.45870757 6.58633834 -598.00308896 5.19357956 C-594.40829364 5.12884641 -590.81350418 5.06379651 -587.21871615 4.9986595 C-519.2995331 3.76871624 -451.3804887 2.69595544 -383.45394755 1.97086943 C-380.82601552 1.94272271 -378.19808742 1.91423645 -375.5701604 1.8856262 C-350.43091689 1.61232677 -325.29140674 1.38569942 -300.15148211 1.18515623 C-295.27099955 1.1462227 -290.39052266 1.10664761 -285.5100484 1.066687 C-205.57369747 0.41298697 -125.63991523 0.00306949 0 0 Z " fill="#D2D7DB" transform="translate(1482.192459590733,1403.8705383464694)"/>
<path d="M0 0 C2 1 2 1 2 1 Z M-1 1 C-1 4.68681856 -2.20421182 5.59406646 -4.71484375 8.125 C-5.22144531 8.62 -5.72804688 9.115 -6.25 9.625 C-6.74113281 10.12773438 -7.23226563 10.63046875 -7.73828125 11.1484375 C-10.32257945 13.71206132 -12.28572559 15.62857256 -16 16 C-11.45200375 10.40246616 -6.47668152 5.6856053 -1 1 Z " fill="#2E4157" transform="translate(1575,815)"/>
<path d="M0 0 C-0.33 0.33 -0.66 0.66 -1 1 C-0.01 1.66 0.98 2.32 2 3 C-2.29 3 -6.58 3 -11 3 C-8.15930939 0.15930939 -3.81147953 -1.90573977 0 0 Z " fill="#D3D7DC" transform="translate(2026,653)"/>
<path d="M0 0 C0.99 0.33 1.98 0.66 3 1 C1.35 2.98 -0.3 4.96 -2 7 C-2.66 6.34 -3.32 5.68 -4 5 C-2.68 3.35 -1.36 1.7 0 0 Z " fill="#273C52" transform="translate(237,1045)"/>
</svg>
