<?xml version="1.0" encoding="UTF-8" standalone="no"?>
<!-- Created with Inkscape (http://www.inkscape.org/) -->

<svg
   version="1.1"
   id="svg1464"
   xml:space="preserve"
   width="530.66669"
   height="530.66669"
   viewBox="0 0 530.66669 530.66669"
   sodipodi:docname="cross-color-silhouette-pdv.svg"
   inkscape:version="1.1.2 (b8e25be833, 2022-02-05)"
   xmlns:inkscape="http://www.inkscape.org/namespaces/inkscape"
   xmlns:sodipodi="http://sodipodi.sourceforge.net/DTD/sodipodi-0.dtd"
   xmlns="http://www.w3.org/2000/svg"
   xmlns:svg="http://www.w3.org/2000/svg"><defs
     id="defs1468"><clipPath
       clipPathUnits="userSpaceOnUse"
       id="clipPath1478"><path
         d="M 0,398 H 398 V 0 H 0 Z"
         id="path1476" /></clipPath></defs><sodipodi:namedview
     id="namedview1466"
     pagecolor="#ffffff"
     bordercolor="#666666"
     borderopacity="1.0"
     inkscape:pageshadow="2"
     inkscape:pageopacity="0.0"
     inkscape:pagecheckerboard="0"
     showgrid="false"
     inkscape:zoom="1.5659547"
     inkscape:cx="265.33334"
     inkscape:cy="265.33334"
     inkscape:window-width="1920"
     inkscape:window-height="1018"
     inkscape:window-x="-8"
     inkscape:window-y="-8"
     inkscape:window-maximized="1"
     inkscape:current-layer="g1470" /><g
     id="g1470"
     inkscape:groupmode="layer"
     inkscape:label="cross-color-silhouette-pdv"
     transform="matrix(1.3333333,0,0,-1.3333333,0,530.66667)"><g
       id="g1472"><g
         id="g1474"
         clip-path="url(#clipPath1478)"><path
           d="m 214.434,373.306 h -17.997 v -2.099 z"
           style="fill:#e04400;fill-opacity:1;fill-rule:nonzero;stroke:none"
           id="path1480" /><path
           d="m 197.606,21.19 25.457,-0.233 -0.185,8.638 -25.44,-0.366 z"
           style="fill:#ac8c98;fill-opacity:1;fill-rule:nonzero;stroke:none"
           id="path1482" /><path
           d="m 336.774,303.552 v 16.746 h -9.285 l 0.777,-25.868 z"
           style="fill:#df2200;fill-opacity:1;fill-rule:nonzero;stroke:none"
           id="path1484" /><path
           d="m 336.774,294.769 v 8.783 l -8.508,-9.122 z"
           style="fill:#dc2b00;fill-opacity:1;fill-rule:nonzero;stroke:none"
           id="path1486" /><path
           d="m 328.365,294.378 h 8.409 v 0.391 l -8.508,-0.339 z"
           style="fill:#df5e00;fill-opacity:1;fill-rule:nonzero;stroke:none"
           id="path1488" /><path
           d="m 328.271,294.378 h 0.094 l -0.099,0.052 z"
           style="fill:#e88200;fill-opacity:1;fill-rule:nonzero;stroke:none"
           id="path1490" /><path
           d="m 196.437,366.104 27.086,-2.147 v 9.349 h -9.089 l -17.997,-2.099 z"
           style="fill:#e65100;fill-opacity:1;fill-rule:nonzero;stroke:none"
           id="path1492" /><path
           d="m 328.239,294.378 h 0.032 l -0.005,0.052 z"
           style="fill:#f38900;fill-opacity:1;fill-rule:nonzero;stroke:none"
           id="path1494" /><path
           d="m 197.438,29.229 25.44,0.366 -0.036,1.686 -25.522,3.593 z"
           style="fill:#b16559;fill-opacity:1;fill-rule:nonzero;stroke:none"
           id="path1496" /><path
           d="m 301.037,294.378 7.992,25.92 h -14.883 l 3.158,-25.92 z"
           style="fill:#ef3500;fill-opacity:1;fill-rule:nonzero;stroke:none"
           id="path1498" /><path
           d="m 328.087,294.378 0.179,0.052 -0.777,25.868 h -18.46 l -7.992,-25.92 z"
           style="fill:#f43800;fill-opacity:1;fill-rule:nonzero;stroke:none"
           id="path1500" /><path
           d="m 328.087,294.378 h 0.152 l 0.027,0.052 z"
           style="fill:#f77700;fill-opacity:1;fill-rule:nonzero;stroke:none"
           id="path1502" /><path
           d="m 271.604,294.385 h 0.017 l -0.006,-0.004 14.528,-4.715 4.864,4.712 h 6.297 l -3.158,25.92 h -49.701 l -9.607,-13.981 z"
           style="fill:#fb6100;fill-opacity:1;fill-rule:nonzero;stroke:none"
           id="path1504" /><path
           d="m 244.445,320.298 h -10.472 l 0.865,-13.981 z"
           style="fill:#f55a00;fill-opacity:1;fill-rule:nonzero;stroke:none"
           id="path1506" /><path
           d="m 233.647,245.134 0.378,2.785 2.114,9.101 1.019,2.507 -7.149,1.284 z"
           style="fill:#ffd100;fill-opacity:1;fill-rule:nonzero;stroke:none"
           id="path1508" /><path
           d="m 237.158,259.527 1.072,2.638 12.614,4.665 4.114,3.066 -24.949,-9.085 z"
           style="fill:#fd9d00;fill-opacity:1;fill-rule:nonzero;stroke:none"
           id="path1510" /><path
           d="m 261.119,287.389 -9.332,-4.676 -7.948,-3.73 c 0,0 -2.34,-2.339 -3.971,-2.339 -1.638,0 -7.47,-0.231 -7.47,-0.231 l -0.752,-0.177 -1.637,-15.425 24.949,9.085 7.789,5.804 8.179,3.049 12.61,8.393 2.607,2.524 -14.528,4.715 z"
           style="fill:#ff9300;fill-opacity:1;fill-rule:nonzero;stroke:none"
           id="path1512" /><path
           d="m 271.604,294.385 -36.766,11.932 -1.266,-11.932 z"
           style="fill:#ff9300;fill-opacity:1;fill-rule:nonzero;stroke:none"
           id="path1514" /><path
           d="m 187.103,192.83 44.962,-12.637 0.096,4.217 -1.862,13.533 -1.875,8.409 v 10.275 l 3.51,15.876 1.713,12.631 -3.638,15.677 z"
           style="fill:#ffce00;fill-opacity:1;fill-rule:nonzero;stroke:none"
           id="path1516" /><path
           d="m 184.445,182.561 1.256,-7.497 6.531,-32.216 1.17,-9.105 c 0,0 0.234,-5.837 0.234,-7.007 0,-0.491 -0.041,-1.979 -0.089,-3.66 l 33.71,-1.17 -1.159,9.036 0.461,8.641 0.784,2.782 -40.24,50.465 z"
           style="fill:#f0d03c;fill-opacity:1;fill-rule:nonzero;stroke:none"
           id="path1518" /><path
           d="m 227.343,142.365 3.882,13.784 0.709,18.221 0.131,5.823 -44.962,12.637 z"
           style="fill:#f6e63a;fill-opacity:1;fill-rule:nonzero;stroke:none"
           id="path1520" /><path
           d="m 196.437,320.301 h -0.91 l -17.34,-20.856 56.651,6.872 -0.865,13.981 h -10.45 v 33.678 l -27.086,-32.58 z"
           style="fill:#fb6800;fill-opacity:1;fill-rule:nonzero;stroke:none"
           id="path1522" /><path
           d="m 193.402,117.157 c 0,-1.632 1.865,-9.576 1.865,-9.576 l 0.167,-0.928 28.831,-19.028 -0.046,3.85 3.51,16.816 -0.461,13.535 -0.011,0.08 -33.71,1.17 c -0.067,-2.305 -0.145,-4.971 -0.145,-5.919"
           style="fill:#c7df6f;fill-opacity:1;fill-rule:nonzero;stroke:none"
           id="path1524" /><path
           d="m 230.009,260.811 -44.769,-11.38 2.099,-6.406 3.035,-15.877 1.631,-6.777 -3.496,-12.843 -3.052,-6.068 -1.093,-4.802 2.739,-3.828 z"
           style="fill:#feb200;fill-opacity:1;fill-rule:nonzero;stroke:none"
           id="path1526" /><path
           d="m 196.437,321.396 27.086,32.58 v 9.981 l -27.086,2.147 z"
           style="fill:#f35c00;fill-opacity:1;fill-rule:nonzero;stroke:none"
           id="path1528" /><path
           d="m 195.527,320.301 h -19.708 l 2.368,-20.856 z"
           style="fill:#f35c00;fill-opacity:1;fill-rule:nonzero;stroke:none"
           id="path1530" /><path
           d="m 192.232,48.044 2.109,-4.894 h 2.805 l 0.174,-8.276 25.522,-3.593 -0.254,11.869 h 3.275 l 2.823,3.674 -0.497,23.874 h -3.722 l -0.046,3.782 -32.189,-21.335 z"
           style="fill:#b5b995;fill-opacity:1;fill-rule:nonzero;stroke:none"
           id="path1532" /><path
           d="m 196.667,70.698 h -4.435 V 53.145 l 32.189,21.335 -0.081,6.909 -27.46,1.033 z"
           style="fill:#c2b266;fill-opacity:1;fill-rule:nonzero;stroke:none"
           id="path1534" /><path
           d="m 197.146,97.076 -0.266,-14.654 27.46,-1.033 -0.075,6.236 -28.831,19.028 z"
           style="fill:#d3bf53;fill-opacity:1;fill-rule:nonzero;stroke:none"
           id="path1536" /><path
           d="m 193.175,294.385 -1.404,-4.901 -0.015,-0.155 38.253,-28.518 1.637,15.425 -2.283,-0.532 -4.896,-3.266 -1.404,0.461 -0.709,21.486 h 11.218 l 1.266,11.932 -56.651,-6.872 6.788,-5.06 z"
           style="fill:#ff8500;fill-opacity:1;fill-rule:nonzero;stroke:none"
           id="path1538" /><path
           d="m 184.975,294.385 -6.788,5.06 -2.224,-5.06 z"
           style="fill:#fe9400;fill-opacity:1;fill-rule:nonzero;stroke:none"
           id="path1540" /><path
           d="m 191.756,289.329 -0.446,-4.511 -2.571,-5.374 -0.23,-6.297 -6.083,2.327 -7.467,1.63 -5.592,2.271 -5.089,-11.576 c 2.316,-1.787 4.15,-3.291 4.15,-3.291 l 8.871,-3.28 4.666,-2.096 0.939,-2.569 2.336,-7.132 44.769,11.38 z"
           style="fill:#fe9400;fill-opacity:1;fill-rule:nonzero;stroke:none"
           id="path1542" /><path
           d="m 175.819,320.301 h -25.55 l 27.918,-20.856 z"
           style="fill:#f04f00;fill-opacity:1;fill-rule:nonzero;stroke:none"
           id="path1544" /><path
           d="m 178.187,299.445 -27.918,20.856 h -50.17 l 0.263,-20.67 z"
           style="fill:#f64e00;fill-opacity:1;fill-rule:nonzero;stroke:none"
           id="path1546" /><path
           d="m 183.609,192.85 0.214,-6.576 0.622,-3.713 2.658,10.269 z"
           style="fill:#fb9b00;fill-opacity:1;fill-rule:nonzero;stroke:none"
           id="path1548" /><path
           d="m 184.364,196.658 -0.768,-3.378 0.013,-0.43 3.494,-0.02 z"
           style="fill:#ffa300;fill-opacity:1;fill-rule:nonzero;stroke:none"
           id="path1550" /><path
           d="m 166.315,280.614 -7.928,2.804 -4.436,2.57 -4.912,5.836 -3.973,2.561 h 30.897 l 2.224,5.06 -77.825,0.186 4.68,-5.246 h 22.515 l 5.373,-4.44 10.503,-10.04 4.436,-2.326 3.742,-2.105 c 1.88,-1.061 3.989,-1.686 5.837,-2.804 1.916,-1.158 4.597,-3.147 6.83,-4.871 l 5.089,11.576 z"
           style="fill:#fd7700;fill-opacity:1;fill-rule:nonzero;stroke:none"
           id="path1552" /><path
           d="m 100.24,294.385 h 4.802 l -4.68,5.246 z"
           style="fill:#fd7400;fill-opacity:1;fill-rule:nonzero;stroke:none"
           id="path1554" /><path
           d="m 96.865,294.385 h 3.375 l 0.122,5.246 z"
           style="fill:#fa6200;fill-opacity:1;fill-rule:nonzero;stroke:none"
           id="path1556" /><path
           d="M 100.099,320.301 H 89.965 v -14.853 l 10.397,-5.817 z"
           style="fill:#f03600;fill-opacity:1;fill-rule:nonzero;stroke:none"
           id="path1558" /><path
           d="m 89.965,305.448 v -11.063 h 6.9 l 3.497,5.246 z"
           style="fill:#f64d00;fill-opacity:1;fill-rule:nonzero;stroke:none"
           id="path1560" /></g></g></g></svg>
